<?xml version="1.0" encoding="UTF-8"?>
<svg id="Livello_1" data-name="Livello 1" xmlns="http://www.w3.org/2000/svg" viewBox="0 0 16 16">
  <defs>
    <style>
      .cls-1 {
        fill: #f4f4f6;
      }

      .cls-2 {
        fill: #0f0f12;
      }
    </style>
  </defs>
  <rect class="cls-2" width="16" height="16"/>
  <rect class="cls-1" x="1.73" y="7.47" width="4.81" height="1.06" rx=".53" ry=".53"/>
  <rect class="cls-1" x="3.41" y="9.66" width="5.38" height="1.06" rx=".53" ry=".53"/>
  <rect class="cls-1" x="3.7" y="5.28" width="3.83" height="1.06" rx=".53" ry=".53"/>
  <path class="cls-1" d="M10.28,8.52l.75.75-1.3,1.3c-.21.21-.54.21-.75,0-.1-.1-.16-.24-.16-.37s.05-.27.16-.38l1.3-1.3h0Z"/>
  <path class="cls-1" d="M14.27,5.88c0,.14-.05.27-.16.37l-2.34,2.26-.75-.75,2.34-2.26c.21-.21.54-.21.75,0,.1.1.16.24.16.38h0Z"/>
  <path class="cls-1" d="M8.39,5.28c.14,0,.27.05.37.16l2.26,2.34-.75.75-2.26-2.34c-.21-.21-.21-.54,0-.75.1-.1.24-.16.38-.16h0Z"/>
</svg>